<svg width="283" height="80" viewBox="0 0 283 80" fill="none" xmlns="http://www.w3.org/2000/svg">
<rect x="0.5" y="0.5" width="282" height="79" rx="4.5" stroke="#9747FF" stroke-dasharray="10 5"/>
<path d="M20 22.375H29.475L39.5 46.8H39.925L49.95 22.375H59.425V58.75H51.975V35.075H51.675L42.275 58.575H37.175L27.775 35H27.475V58.75H20V22.375Z" fill="black"/>
<path d="M65.6 58.725V31.45H73.175V58.725H65.6Z" fill="black"/>
<path d="M86.775 42.95V58.725H79.2V31.45H86.4V36.275H86.725C87.325 34.7 88.35 33.425 89.75 32.5C91.175 31.575 92.9 31.1 94.925 31.1C96.825 31.1 98.475 31.525 99.875 32.35C101.275 33.175 102.375 34.35 103.15 35.9C103.925 37.425 104.325 39.25 104.325 41.375V58.75H96.75V42.725C96.75 41.05 96.325 39.75 95.475 38.8C94.625 37.85 93.425 37.4 91.9 37.4C90.875 37.4 89.975 37.625 89.2 38.05C88.425 38.5 87.825 39.125 87.4 39.95C87 40.775 86.775 41.8 86.775 42.95Z" fill="black"/>
<path d="M120.35 59.175C118.275 59.175 116.4 58.65 114.725 57.575C113.05 56.5 111.725 54.925 110.75 52.825C109.775 50.725 109.275 48.175 109.275 45.125C109.275 42 109.775 39.4 110.775 37.325C111.775 35.25 113.125 33.7 114.8 32.65C116.475 31.625 118.3 31.1 120.325 31.1C121.85 31.1 123.125 31.35 124.15 31.875C125.175 32.4 126 33.025 126.625 33.8C127.25 34.575 127.75 35.3 128.075 36.05H128.3V22.375H135.85V58.75H128.4V54.375H128.075C127.725 55.125 127.225 55.875 126.575 56.625C125.925 57.375 125.1 57.975 124.075 58.475C123.05 58.925 121.8 59.175 120.35 59.175ZM122.75 53.15C123.975 53.15 125 52.825 125.85 52.15C126.7 51.475 127.35 50.55 127.8 49.325C128.25 48.125 128.475 46.7 128.475 45.075C128.475 43.45 128.25 42.05 127.8 40.85C127.35 39.65 126.7 38.725 125.85 38.075C125 37.425 123.95 37.1 122.75 37.1C121.5 37.1 120.45 37.425 119.6 38.1C118.75 38.775 118.1 39.7 117.675 40.9C117.225 42.1 117.025 43.475 117.025 45.05C117.025 46.625 117.25 48.025 117.7 49.25C118.15 50.475 118.8 51.4 119.625 52.1C120.45 52.825 121.5 53.15 122.75 53.15Z" fill="black"/>
<path d="M166.325 34.125C166.075 33.25 165.725 32.5 165.275 31.825C164.825 31.15 164.275 30.6 163.625 30.125C162.975 29.65 162.25 29.3 161.425 29.05C160.6 28.8 159.7 28.675 158.7 28.675C156.85 28.675 155.2 29.125 153.8 30.05C152.4 30.975 151.3 32.325 150.525 34.075C149.75 35.825 149.35 37.975 149.35 40.5C149.35 43.025 149.725 45.2 150.5 46.975C151.275 48.75 152.35 50.1 153.775 51.025C155.175 51.95 156.85 52.425 158.775 52.425C160.525 52.425 162 52.125 163.25 51.5C164.475 50.875 165.425 50 166.1 48.875C166.75 47.75 167.075 46.4 167.075 44.85L168.625 45.075H159.25V39.275H174.475V43.85C174.475 47.05 173.8 49.8 172.45 52.075C171.1 54.375 169.25 56.125 166.875 57.375C164.5 58.6 161.8 59.225 158.75 59.225C155.35 59.225 152.35 58.475 149.775 56.95C147.2 55.45 145.175 53.3 143.75 50.5C142.3 47.7 141.6 44.4 141.6 40.575C141.6 37.625 142.025 35 142.875 32.675C143.725 30.35 144.925 28.4 146.5 26.8C148.05 25.2 149.85 23.975 151.925 23.125C153.975 22.275 156.225 21.875 158.625 21.875C160.675 21.875 162.6 22.175 164.375 22.775C166.15 23.375 167.725 24.225 169.1 25.3C170.475 26.4 171.6 27.675 172.475 29.175C173.35 30.675 173.925 32.325 174.15 34.125H166.325Z" fill="#5356FF"/>
<path d="M187.65 22.375V58.75H180.1V22.375H187.65Z" fill="#5356FF"/>
<path d="M206.025 59.25C203.275 59.25 200.875 58.65 198.875 57.475C196.875 56.3 195.325 54.65 194.225 52.55C193.125 50.45 192.6 47.975 192.6 45.2C192.6 42.375 193.15 39.925 194.225 37.8C195.3 35.675 196.85 34.05 198.875 32.875C200.875 31.7 203.275 31.1 206.025 31.1C208.775 31.1 211.175 31.7 213.175 32.875C215.175 34.05 216.725 35.7 217.825 37.8C218.925 39.9 219.45 42.375 219.45 45.2C219.45 48 218.9 50.45 217.825 52.55C216.75 54.65 215.2 56.3 213.175 57.475C211.15 58.675 208.775 59.25 206.025 59.25ZM206.05 53.4C207.3 53.4 208.35 53.05 209.2 52.325C210.05 51.6 210.675 50.625 211.1 49.375C211.525 48.125 211.75 46.725 211.75 45.125C211.75 43.55 211.525 42.125 211.1 40.875C210.675 39.625 210.025 38.65 209.2 37.925C208.35 37.2 207.3 36.85 206.05 36.85C204.775 36.85 203.725 37.2 202.875 37.925C202.025 38.65 201.375 39.625 200.95 40.875C200.525 42.125 200.3 43.525 200.3 45.125C200.3 46.7 200.525 48.125 200.95 49.375C201.375 50.625 202.025 51.6 202.875 52.325C203.725 53.05 204.775 53.4 206.05 53.4Z" fill="#5356FF"/>
<path d="M229.075 58.725L221.65 31.45H229.3L233.525 49.775H233.775L238.175 31.45H245.675L250.15 49.675H250.375L254.525 31.45H262.15L254.75 58.725H246.75L242.1 41.575H241.775L237.075 58.725H229.075Z" fill="#5356FF"/>
<path fill-rule="evenodd" clip-rule="evenodd" d="M65.7 20C65.025 20 64.475 20.55 64.475 21.225V27.675C64.475 28.35 65.05 28.7 65.7 28.9L69.075 29.825V20.925C67.55 20.5 65.7 20 65.7 20ZM73.075 20C73.075 20 71.3 20.5 69.675 20.925H69.7V29.825C71.425 29.375 73.075 28.9 73.075 28.9C73.7 28.725 74.3 28.35 74.3 27.675V21.225C74.3 20.55 73.75 20 73.075 20Z" fill="#5356FF"/>
<path fill-rule="evenodd" clip-rule="evenodd" d="M73.675 27.675C73.675 28.025 73.4 28.175 73.05 28.3C73.05 28.3 71.375 28.775 69.675 29.225V21.525L73.05 20.6C73.4 20.6 73.675 20.875 73.675 21.225V27.675ZM69.075 29.2C67.4 28.75 65.7 28.275 65.7 28.275C65.35 28.175 65.075 28 65.075 27.65V21.2C65.075 20.85 65.35 20.575 65.7 20.575L69.075 21.5V29.2ZM73.075 20C73.075 20 71.3 20.5 69.675 20.925C69.475 20.925 69.275 20.925 69.075 20.925C67.525 20.5 65.7 20 65.7 20C65.025 20 64.475 20.55 64.475 21.225V27.675C64.475 28.35 65.05 28.7 65.7 28.9C65.7 28.9 67.35 29.35 69.075 29.825H69.7C71.425 29.375 73.075 28.9 73.075 28.9C73.7 28.725 74.3 28.35 74.3 27.675V21.225C74.3 20.55 73.75 20 73.075 20Z" fill="black"/>
</svg>
