<svg width="25" height="24" viewBox="0 0 25 24" fill="none" xmlns="http://www.w3.org/2000/svg">
<g clip-path="url(#clip0_260_812)">
<circle cx="12.08" cy="12" r="2" stroke="#292929" stroke-width="2"/>
<path d="M5.47852 5.87922C4.54878 6.88131 3.87366 8.07052 3.48057 9.3446L5.07987 10.268C6.41321 11.0378 6.41321 12.9623 5.07987 13.7321L3.47886 14.6564C3.67407 15.2865 3.94203 15.9047 4.28573 16.5C4.62942 17.0953 5.03084 17.6365 5.47885 18.1205L7.0799 17.1962C8.41323 16.4264 10.0799 17.3886 10.0799 18.9282L10.0799 20.775C11.3798 21.0716 12.7473 21.0816 14.08 20.7774L14.08 18.9283C14.08 17.3887 15.7467 16.4264 17.08 17.1962L18.6814 18.1208C19.6111 17.1187 20.2862 15.9295 20.6793 14.6554L19.08 13.732C17.7466 12.9622 17.7466 11.0377 19.08 10.2679L20.681 9.34354C20.4858 8.71353 20.2179 8.0953 19.8742 7.50001C19.5305 6.9047 19.129 6.36352 18.681 5.87944L17.08 6.8038C15.7467 7.5736 14.08 6.61135 14.08 5.07175L14.08 3.22501C12.7801 2.92841 11.4126 2.91847 10.0799 3.2226L10.0799 5.07172C10.0799 6.61132 8.41323 7.57357 7.0799 6.80377L5.47852 5.87922Z" stroke="#292929" stroke-width="2" stroke-linejoin="round"/>
</g>
<defs>
<clipPath id="clip0_260_812">
<rect width="24" height="24" fill="white" transform="translate(0.0799561)"/>
</clipPath>
</defs>
</svg>
