<?xml version="1.0" encoding="utf-8"?>
<!-- Generator: Adobe Illustrator 26.4.1, SVG Export Plug-In . SVG Version: 6.00 Build 0)  -->
<svg version="1.1" id="Шар_1" xmlns="http://www.w3.org/2000/svg" xmlns:xlink="http://www.w3.org/1999/xlink" x="0px" y="0px"
	 viewBox="0 0 1000 1000" style="enable-background:new 0 0 1000 1000;" xml:space="preserve">
<style type="text/css">
	.st0{fill-rule:evenodd;clip-rule:evenodd;fill:#5356FF;}
</style>
<g id="Page-1">
	<g id="Icon-Set-Filled" transform="translate(-414.000000, -101.000000)">
		<path id="book-album" class="st0" d="M539,101c-69,0-125,56-125,125v656.2c0,69,58.9,103.5,125,125l343.8,93.8V194.8
			C726.1,152.7,539,101,539,101L539,101z M1289,101c0,0-180.9,49.8-345.3,93.8h1.5V1101c175.5-46.8,343.8-93.8,343.8-93.8
			c64.2-16.6,125-56,125-125V226C1414,157,1358,101,1289,101L1289,101z"/>
	</g>
</g>
</svg>
